<svg id="outline_explan" enable-background="new 0 0 512 512" height="512" viewBox="0 0 512 512" width="512" xmlns="http://www.w3.org/2000/svg"><path d="m248 160h16v32h-16z"/><path d="m505.409 480-81.872-29.772-11.074-99.116-15.9 1.776 10.194 91.238-70.757-25.73v-73.708l14.456-10.325c15.995-11.425 25.544-29.982 25.544-49.638v-12.725h8c.135 0 .269-.001.403-.004.027 0 .054-.001.08-.002 1.021-.02 2.027-.104 3.013-.249l7.279 65.143 15.9-1.776-8.045-72c3.355-4.129 5.369-9.39 5.369-15.112v-32c0-4.952-1.508-9.559-4.089-13.386l3.583-34.641c4.429-42.818-9.565-85.708-38.396-117.674-6.874-7.622-14.454-14.469-22.594-20.477-.178-.156-.363-.305-.556-.447-25.9-19-56.597-29.144-88.841-29.371-.055 0-.11-.001-.166-.001-.311-.002-.626-.003-.94-.003s-.629.001-.943.003c-.055 0-.11.001-.166.001-32.244.227-62.94 10.371-88.841 29.371-.193.142-.378.291-.555.447-8.14 6.008-15.72 12.855-22.594 20.477-28.83 31.966-42.824 74.856-38.396 117.674l3.583 34.641c-2.58 3.827-4.088 8.433-4.088 13.386v32c0 5.722 2.013 10.983 5.368 15.111l-20.905 187.117-81.872 29.772h-6.591v16h8c.933 0 1.857-.163 2.734-.481l105.32-38.298 28.999 50.749c1.425 2.493 4.075 4.031 6.946 4.031h16c1.847 0 3.637-.639 5.065-1.808l82.936-67.857 82.935 67.855c1.429 1.169 3.219 1.808 5.065 1.808h16c2.871 0 5.521-1.538 6.946-4.031l29-50.749 105.32 38.298c.877.318 1.802.481 2.734.481h8v-16h-6.591zm-145.409-195.275c0 14.5-7.045 28.189-18.844 36.618l-6.948 4.962c-.018-.071-.037-.141-.055-.211-.012-.046-.023-.092-.036-.137-.026-.1-.052-.2-.079-.3-.011-.043-.022-.085-.034-.128-.026-.098-.053-.197-.081-.295-.012-.045-.024-.091-.037-.136-.027-.099-.055-.198-.083-.297-.012-.044-.024-.088-.037-.132-.027-.096-.055-.192-.083-.289-.014-.047-.027-.094-.041-.14-.027-.092-.055-.183-.082-.275-.016-.053-.031-.105-.047-.158-.025-.084-.051-.168-.077-.251-.018-.059-.036-.117-.054-.176-.026-.086-.054-.171-.081-.257-.017-.055-.035-.109-.052-.164-.028-.089-.057-.177-.086-.266-.017-.052-.034-.104-.051-.156-.028-.085-.056-.17-.084-.254-.019-.058-.039-.115-.058-.173-.027-.081-.055-.161-.082-.241-.021-.06-.041-.12-.062-.18-.026-.076-.053-.152-.079-.228-.023-.066-.046-.132-.069-.198-.024-.067-.048-.134-.072-.201-.026-.074-.053-.148-.08-.221-.022-.063-.046-.125-.068-.188-.028-.076-.056-.152-.084-.228-.024-.065-.049-.131-.073-.196-.027-.073-.055-.147-.083-.221-.022-.058-.044-.117-.067-.175-.031-.082-.063-.164-.095-.246-.018-.047-.037-.093-.055-.14-.036-.092-.072-.184-.108-.276-.016-.04-.032-.08-.048-.12-.039-.098-.078-.196-.118-.294-.014-.034-.028-.068-.042-.102-.042-.104-.084-.207-.127-.311-.011-.027-.023-.054-.034-.081-.045-.109-.091-.219-.138-.328-.01-.025-.021-.05-.032-.074-.048-.112-.096-.225-.145-.337-.006-.013-.011-.026-.017-.038-.054-.123-.107-.246-.162-.369-.003-.006-.005-.012-.008-.019-.057-.129-.114-.257-.172-.385-.004-.01-.009-.019-.013-.029-.057-.125-.113-.25-.171-.374-.004-.009-.009-.019-.013-.028-.181-.393-.367-.784-.557-1.172-.009-.017-.017-.034-.025-.051-.057-.115-.114-.231-.171-.346-.008-.016-.017-.033-.025-.049-.19-.38-.384-.758-.583-1.133-.069-.131-.14-.263-.21-.394l-44.377-82.413c-.153-.284-.31-.564-.472-.841-4.203-7.203-11.336-12.09-19.424-13.479-.311-.053-.624-.102-.938-.145-.784-.107-1.577-.182-2.376-.223-.479-.025-.961-.037-1.444-.037h-8.107c-.483 0-.965.012-1.445.037-.799.041-1.591.116-2.376.223-.314.043-.626.091-.937.145-8.088 1.389-15.221 6.275-19.424 13.479-.162.277-.319.558-.472.841l-44.377 82.414c-.071.131-.141.262-.21.394-.185.351-.366.703-.544 1.057-.021.043-.043.086-.064.128-.042.083-.083.167-.124.251-.024.049-.048.097-.072.146-.062.126-.123.253-.184.379-.002.005-.005.01-.007.015-.06.125-.12.251-.179.377-.004.008-.008.016-.011.024-.046.098-.092.197-.138.295-.018.038-.035.076-.053.114-.043.094-.086.188-.129.283-.018.04-.037.08-.055.12-.042.092-.083.184-.124.276-.02.043-.039.087-.058.13-.042.096-.084.193-.126.289-.017.039-.034.077-.051.115-.04.091-.079.183-.118.274-.02.046-.039.091-.059.137-.038.089-.075.179-.113.269-.02.047-.039.093-.059.14-.036.086-.071.173-.106.259-.021.051-.042.103-.063.154-.031.078-.062.155-.094.233-.025.062-.05.123-.074.185-.027.069-.054.138-.082.208-.027.069-.054.138-.081.208-.025.064-.05.129-.074.194-.029.075-.058.15-.086.225-.023.06-.045.12-.068.18-.03.079-.059.157-.088.236-.023.063-.046.126-.069.189-.028.076-.056.151-.083.227-.022.06-.043.12-.064.179-.029.082-.059.164-.088.246-.018.05-.035.1-.052.15-.032.092-.064.183-.096.275-.016.045-.031.09-.046.135-.032.094-.064.188-.096.283-.016.048-.032.096-.048.144-.031.094-.063.189-.094.283-.014.043-.028.085-.042.128-.032.098-.064.197-.095.295-.014.045-.028.091-.043.136-.03.095-.06.19-.09.285-.015.05-.031.1-.046.15-.028.092-.057.184-.085.277-.013.045-.027.09-.04.135-.03.099-.059.198-.089.298-.011.039-.023.078-.034.117-.03.104-.06.208-.09.312-.01.037-.021.074-.031.111-.03.105-.059.21-.088.315-.011.042-.023.083-.034.125-.028.102-.056.204-.083.306-.01.039-.021.078-.031.118-.028.103-.055.207-.082.31-.011.043-.022.085-.033.128-.019.073-.038.146-.056.218l-4.017-2.869c-13.633-9.741-21.774-25.56-21.774-42.316v-81.385c11.972-.786 23.665-3.339 34.857-7.62l-5.715-14.944c-9.363 3.581-19.134 5.766-29.143 6.524v-23.698c0-39.701 32.299-72 72-72h23.689c-2.641 33.932-21.941 64.879-51.695 82.091l8.012 13.85c24.084-13.932 42.23-35.666 51.967-60.918 16.419 42.609 56.483 73.569 104.027 76.713v84.989zm-173.266 146.794c3.161-1.15 5.266-4.154 5.266-7.519v-83.429c0-6.905 1.73-13.768 5.004-19.847l44.377-82.413c.041-.076.083-.151.125-.225.011-.02.022-.039.034-.059.034-.06.069-.12.104-.179.01-.016.019-.032.029-.048.044-.073.089-.146.134-.218.008-.012.015-.024.023-.036.039-.061.079-.123.119-.183.012-.018.023-.035.035-.053.044-.065.088-.13.133-.194.004-.006.008-.012.012-.017.05-.072.102-.143.153-.213.009-.012.018-.024.026-.036.042-.057.085-.114.128-.17.013-.016.025-.033.038-.049.052-.068.105-.134.159-.201 0-.001.001-.001.002-.002.052-.065.106-.128.159-.192.013-.016.027-.031.04-.047.046-.054.093-.107.14-.161.01-.011.02-.022.029-.033.056-.063.113-.125.171-.187.01-.011.021-.022.032-.034.048-.051.097-.102.146-.153.014-.014.028-.029.042-.043.056-.057.112-.113.168-.168l.011-.011c.06-.058.121-.116.182-.173.014-.014.029-.027.044-.041.05-.047.101-.093.152-.138.013-.012.026-.024.039-.035.062-.055.125-.11.189-.164.01-.009.021-.018.031-.027.053-.045.107-.09.162-.134.018-.015.036-.029.054-.044.052-.042.104-.082.156-.123.015-.011.029-.023.043-.034.064-.049.129-.098.194-.146.017-.013.035-.025.052-.038l.15-.108c.021-.015.042-.03.064-.045.066-.046.133-.092.2-.136.004-.003.009-.006.013-.009.064-.042.128-.084.193-.125.021-.013.042-.027.064-.04.053-.033.106-.066.16-.099.018-.011.037-.023.055-.034.069-.042.139-.082.209-.122.016-.009.032-.018.049-.027.056-.032.112-.063.169-.094.022-.012.045-.025.068-.037.064-.035.129-.069.195-.102.007-.004.014-.008.021-.011.073-.038.147-.074.222-.11.02-.01.039-.019.059-.028.059-.028.118-.056.177-.083.018-.008.035-.016.053-.024.077-.035.155-.069.232-.102.002-.001.004-.002.007-.003.075-.032.15-.063.226-.093.017-.007.035-.014.052-.021.071-.028.142-.056.213-.083.008-.003.015-.006.022-.008.083-.031.166-.061.249-.09.002-.001.004-.001.006-.002v63.334h-8c-3.03 0-5.801 1.712-7.155 4.422l-15.274 30.549c-6.47 12.939-8.632 27.32-6.254 41.589l4.684 28.102v23.338h16v-24c0-.44-.036-.88-.108-1.315l-4.792-28.755c-1.819-10.912-.166-21.909 4.781-31.804l13.063-26.126h3.056v116.209l-55.162 45.133-20.837-36.465zm-58.943-175.522c-4.315-.111-7.791-3.656-7.791-7.997v-32c0-2.03.761-3.886 2.012-5.298.061-.061.122-.123.182-.186.763-.807 1.657-1.433 2.634-1.859.008-.003.016-.007.024-.01.042-.018.085-.036.127-.053.023-.01.047-.019.07-.029.025-.01.051-.02.076-.03.041-.016.083-.032.124-.047.004-.002.009-.003.013-.005.854-.312 1.776-.483 2.737-.483h8v48h-8c-.07 0-.139-.001-.208-.003zm120.025-239.75c-.69 5.315-3.303 10.227-7.402 13.783-4.821 4.181-11.219 6.06-17.524 5.159l-29.076-4.154c16.668-8.543 35.052-13.643 54.002-14.788zm70.37 14.788-29.076 4.154c-6.312.903-12.703-.978-17.524-5.159-4.1-3.556-6.712-8.468-7.402-13.783 18.95 1.145 37.334 6.245 54.002 14.788zm41.814 152.66c-50.981-3.896-91.799-44.714-95.695-95.695h23.695c39.701 0 72 32.299 72 72zm16 72.305v-48h8c.746 0 1.467.103 2.153.295.013.004.027.007.041.011.038.011.075.022.112.033.028.008.056.017.083.025.023.007.045.015.068.022.044.014.088.029.133.044.005.002.011.004.016.006 1.199.416 2.292 1.121 3.2 2.082.066.07.133.138.201.205 1.24 1.41 1.993 3.257 1.993 5.277v32c0 2.433-1.092 4.616-2.812 6.084-.021.017-.042.035-.063.052-.209.175-.448.357-.715.535-.027.018-.054.036-.081.053-.013.008-.026.016-.039.025-1.186.756-2.583 1.209-4.081 1.248-.069.002-.139.003-.209.003zm-18.782-194.985c25.801 28.607 38.325 66.993 34.361 105.312l-2.707 26.17c-1.574-.326-3.203-.497-4.872-.497h-8v-32c0-48.523-39.477-88-88-88h-24v-27.607c6.437 4.573 14.124 7.017 21.991 7.017 1.789 0 3.588-.126 5.382-.383l47.657-6.808c6.517 5.001 12.612 10.613 18.188 16.796zm-202.436 0c5.576-6.183 11.671-11.795 18.188-16.795l47.657 6.808c1.794.256 3.592.383 5.381.383 7.867 0 15.555-2.445 21.992-7.017v27.606h-24c-48.523 0-88 39.477-88 88v32h-8c-1.669 0-3.298.171-4.872.497l-2.707-26.17c-3.964-38.319 8.56-76.704 34.361-105.312zm-30.279 210.73c.987.145 1.992.229 3.014.249.027.001.054.001.081.002.134.002.268.004.403.004h8v9.123c0 21.913 10.646 42.598 28.476 55.333l11.523 8.232v73.708l-70.756 25.73zm40.642 224.255h-8.502l-25.33-44.328 25.43-9.247 23.538 41.191zm98.855-184h3.056l13.063 26.126c4.947 9.895 6.601 20.892 4.781 31.804l-4.792 28.754c-.072.436-.108.876-.108 1.316v24h16v-23.338l4.684-28.101c2.378-14.27.216-28.651-6.254-41.59l-15.274-30.549c-1.355-2.71-4.126-4.422-7.156-4.422h-8v-63.334c.002.001.004.001.005.002.083.029.167.059.25.09.007.003.015.006.022.008.071.027.142.054.213.083.018.007.035.014.052.021.076.03.151.061.226.093.002.001.004.002.007.003.078.033.155.068.232.102.018.008.036.016.053.024.06.027.119.055.178.083.02.009.04.019.059.028.075.036.148.073.222.11.007.004.015.007.021.011.065.034.13.068.195.102.022.012.045.024.068.037.056.031.112.062.168.094.016.009.032.018.048.027.07.04.14.081.209.122.019.011.037.022.055.034.054.032.107.065.16.099.021.013.042.027.063.04.065.041.129.083.193.125.004.003.009.006.013.009.067.045.133.09.2.136.021.015.042.03.063.045.051.036.101.072.15.108.018.013.035.025.053.038.065.048.129.097.193.146.015.011.029.023.043.034.052.041.104.082.156.123.018.015.036.029.054.044.054.044.108.089.162.134.011.009.021.018.032.027.063.054.126.108.189.164.013.012.026.024.039.035.051.046.102.092.152.138.015.013.029.027.044.041.061.057.122.115.182.173.004.004.007.007.011.011.057.055.113.112.168.168.014.014.028.029.042.043.049.051.098.101.146.153.01.011.021.022.031.034.058.062.115.124.171.187.01.011.02.022.029.033.047.053.094.107.14.161.013.016.027.031.04.047.054.063.107.127.159.192.001.001.001.001.002.002.054.066.107.133.159.201.013.016.025.033.038.049.043.056.086.113.128.17.009.012.018.024.026.036.052.07.103.141.153.213.004.006.008.012.012.017.045.064.089.129.133.194.012.017.023.035.035.053.04.061.08.122.119.183.007.012.015.024.023.036.045.072.09.145.134.218.01.016.019.032.028.048.036.059.07.119.105.179.011.02.022.039.034.059.042.075.083.15.125.225l44.377 82.413c3.273 6.08 5.004 12.943 5.004 19.848v83.428c0 3.364 2.104 6.369 5.266 7.519l14.733 5.358-20.837 36.465-55.158-45.133zm91.357 184h-8.502l-15.136-12.384 23.538-41.191 25.43 9.247z"/></svg>